<svg width="125" height="139" viewBox="0 0 125 139" fill="none" xmlns="http://www.w3.org/2000/svg">
<path d="M24.7205 0.576764C25.181 0.379825 25.6441 0.187551 26.1095 0H79.8905C80.3559 0.187551 80.819 0.379825 81.2795 0.576764H24.7205Z" fill="#3F4147"/>
<path d="M13.8983 6.3444C14.1984 6.14996 14.4999 5.9577 14.803 5.76764H91.197C91.5001 5.9577 91.8017 6.14996 92.1017 6.3444H13.8983Z" fill="#3F4147"/>
<path d="M6.17997 12.112C6.40599 11.9184 6.63322 11.7261 6.86166 11.5353H99.1384C99.3668 11.7261 99.594 11.9184 99.82 12.112H6.17997Z" fill="#3F4147"/>
<path d="M0.181767 17.8797C0.360918 17.6864 0.541117 17.4942 0.722353 17.3029H105.278C105.459 17.4942 105.639 17.6864 105.818 17.8797H0.181767Z" fill="#3F4147"/>
<path d="M-4.63422 23.6473C-4.48937 23.4543 -4.34357 23.262 -4.19683 23.0705H110.197C110.344 23.262 110.489 23.4543 110.634 23.6473H-4.63422Z" fill="#3F4147"/>
<path d="M-8.54308 29.4149C-8.42554 29.2221 -8.30712 29.0298 -8.18784 28.8382H114.188C114.307 29.0298 114.426 29.2221 114.543 29.4149H-8.54308Z" fill="#3F4147"/>
<path d="M-11.7064 35.1826C-11.6119 34.9898 -11.5165 34.7976 -11.4203 34.6058H117.42C117.517 34.7976 117.612 34.9898 117.706 35.1826H-11.7064Z" fill="#3F4147"/>
<path d="M-14.2271 40.9502C-14.1528 40.7576 -14.0777 40.5653 -14.0018 40.3734H120.002C120.078 40.5653 120.153 40.7576 120.227 40.9502H-14.2271Z" fill="#3F4147"/>
<path d="M-16.1742 46.7178C-16.1182 46.5253 -16.0614 46.333 -16.0039 46.1411H122.004C122.061 46.333 122.118 46.5253 122.174 46.7178H-16.1742Z" fill="#3F4147"/>
<path d="M-17.5952 52.4855C-17.5561 52.2929 -17.5163 52.1007 -17.4758 51.9087H123.476C123.516 52.1007 123.556 52.2929 123.595 52.4855H-17.5952Z" fill="#3F4147"/>
<path d="M-18.5229 58.2531C-18.4999 58.0606 -18.4761 57.8684 -18.4516 57.6763H124.452C124.476 57.8684 124.5 58.0606 124.523 58.2531H-18.5229Z" fill="#3F4147"/>
<path d="M-18.9796 64.0208C-18.972 63.8283 -18.9637 63.636 -18.9547 63.444H124.955C124.964 63.636 124.972 63.8283 124.98 64.0208H-18.9796Z" fill="#3F4147"/>
<path d="M-18.9796 69.7884C-18.9872 69.5963 -18.994 69.4041 -19 69.2116H125C124.994 69.4041 124.987 69.5963 124.98 69.7884H-18.9796Z" fill="#3F4147"/>
<path d="M-18.5229 75.556C-18.5458 75.364 -18.568 75.1717 -18.5894 74.9793H124.589C124.568 75.1717 124.546 75.364 124.523 75.556H-18.5229Z" fill="#3F4147"/>
<path d="M-17.5952 81.3237C-17.6341 81.1317 -17.6723 80.9394 -17.7097 80.7469H123.71C123.672 80.9394 123.634 81.1317 123.595 81.3237H-17.5952Z" fill="#3F4147"/>
<path d="M-16.1742 87.0913C-16.2301 86.8994 -16.2851 86.7071 -16.3394 86.5145H122.339C122.285 86.7071 122.23 86.8994 122.174 87.0913H-16.1742Z" fill="#3F4147"/>
<path d="M-14.2271 92.8589C-14.3011 92.6671 -14.3743 92.4748 -14.4467 92.2822H120.447C120.374 92.4748 120.301 92.6671 120.227 92.8589H-14.2271Z" fill="#3F4147"/>
<path d="M-11.7064 98.6266C-11.8004 98.4348 -11.8936 98.2425 -11.986 98.0498H117.986C117.894 98.2425 117.8 98.4348 117.706 98.6266H-11.7064Z" fill="#3F4147"/>
<path d="M-8.54308 104.394C-8.65989 104.203 -8.77584 104.01 -8.89091 103.817H114.891C114.776 104.01 114.66 104.203 114.543 104.394H-8.54308Z" fill="#3F4147"/>
<path d="M-4.63422 110.162C-4.77796 109.97 -4.92076 109.778 -5.06263 109.585H111.063C110.921 109.778 110.778 109.97 110.634 110.162H-4.63422Z" fill="#3F4147"/>
<path d="M0.181765 115.929C0.00441933 115.738 -0.1719 115.546 -0.347187 115.353H106.347C106.172 115.546 105.996 115.738 105.818 115.929H0.181765Z" fill="#3F4147"/>
<path d="M6.17997 121.697C5.95711 121.506 5.73544 121.314 5.51496 121.12H100.485C100.265 121.314 100.043 121.506 99.82 121.697H6.17997Z" fill="#3F4147"/>
<path d="M13.8983 127.465C13.6049 127.275 13.3129 127.082 13.0224 126.888H92.9776C92.6871 127.082 92.3951 127.275 92.1017 127.465H13.8983Z" fill="#3F4147"/>
<path d="M24.7205 133.232C24.2808 133.044 23.8433 132.852 23.4082 132.656H82.5918C82.1567 132.852 81.7192 133.044 81.2795 133.232H24.7205Z" fill="#3F4147"/>
<path d="M62.1553 138.423C59.1571 138.804 56.1015 139 53 139C49.8985 139 46.8429 138.804 43.8447 138.423H62.1553Z" fill="#3F4147"/>
</svg>
