<svg width="125" height="105" viewBox="0 0 125 105" fill="none" xmlns="http://www.w3.org/2000/svg">
<path d="M35.2048 85.5901L34.0824 86.2381L28.2924 79.8815L29.4148 79.2335L33.7575 84.1394L32.1895 77.6315L33.2288 77.0315L38.0807 81.6434L36.0035 75.4295L37.0843 74.8055L39.6943 82.9981L38.5719 83.6461L33.5884 78.9024L35.2048 85.5901ZM39.9656 79.3081C39.7456 78.9271 39.6088 78.5303 39.5554 78.1177C39.5049 77.6942 39.5343 77.2892 39.6438 76.9028C39.7492 76.5093 39.9282 76.1474 40.1807 75.8168C40.4362 75.4753 40.7545 75.1946 41.1355 74.9746C41.5166 74.7546 41.9154 74.6213 42.3319 74.5748C42.7514 74.5174 43.1544 74.5433 43.5409 74.6528C43.9303 74.7512 44.2923 74.9302 44.6268 75.1897C44.9643 75.4383 45.2431 75.7531 45.4631 76.1341C45.6871 76.5221 45.8243 76.9278 45.8748 77.3513C45.9283 77.7639 45.9023 78.1668 45.7969 78.5603C45.6944 78.9428 45.5154 79.3047 45.2599 79.6462C45.0074 79.9768 44.6906 80.2521 44.3095 80.4721C43.9285 80.6921 43.5282 80.8308 43.1087 80.8882C42.6922 80.9347 42.2892 80.9088 41.8998 80.8103C41.5063 80.7048 41.1409 80.5279 40.8034 80.2793C40.4688 80.0198 40.1896 79.6961 39.9656 79.3081ZM43.7815 79.5576C44.2596 79.2816 44.5629 78.8709 44.6914 78.3255C44.8229 77.7693 44.7406 77.2348 44.4446 76.7221C44.1486 76.2094 43.7289 75.8744 43.1854 75.7171C42.6489 75.5557 42.1416 75.6131 41.6635 75.8891C41.1855 76.1651 40.8787 76.5777 40.7432 77.1271C40.6077 77.6764 40.688 78.2074 40.984 78.7201C41.28 79.2328 41.6983 79.5733 42.2388 79.7415C42.7823 79.8989 43.2965 79.8376 43.7815 79.5576ZM47.976 78.2166L44.922 72.927L45.9613 72.327L46.3513 73.0025C46.3626 72.6541 46.455 72.3421 46.6284 72.0665C46.7978 71.7839 47.0384 71.5526 47.3502 71.3726C47.4611 71.3086 47.562 71.2596 47.6532 71.2254C47.7443 71.1913 47.836 71.1661 47.9282 71.1498L48.4682 72.0851C48.3512 72.1064 48.2348 72.1367 48.1188 72.176C48.0029 72.2152 47.893 72.2648 47.7891 72.3248C47.4842 72.5008 47.2586 72.7419 47.1121 73.0482C46.9685 73.3435 46.9229 73.6886 46.9753 74.0833L49.0153 77.6166L47.976 78.2166ZM48.5398 67.8868L52.8718 75.3901L51.8326 75.9901L47.6326 68.7155L48.5398 67.8868ZM58.1487 72.3434L57.8607 71.8446C57.747 72.1597 57.5816 72.4492 57.3645 72.7131C57.1434 72.9701 56.8804 73.1866 56.5755 73.3626C56.2014 73.5786 55.8115 73.7113 55.4059 73.7607C54.9963 73.8032 54.6002 73.7732 54.2177 73.6708C53.8422 73.5643 53.4891 73.3848 53.1586 73.1322C52.824 72.8727 52.5467 72.5525 52.3267 72.1714C52.1067 71.7903 51.97 71.3935 51.9166 70.981C51.8631 70.5684 51.8842 70.1729 51.9797 69.7944C52.0822 69.4119 52.2597 69.0554 52.5123 68.7249C52.7609 68.3874 53.0722 68.1106 53.4463 67.8946C53.7373 67.7266 54.0439 67.6097 54.3661 67.5437C54.6883 67.4778 55.0117 67.462 55.3363 67.4962L53.9383 65.0748L54.8456 64.2462L59.1776 71.7494L58.1487 72.3434ZM53.3392 71.573C53.6392 72.0926 54.0644 72.4291 54.6148 72.5824C55.1652 72.7358 55.6933 72.6664 56.199 72.3744C56.4969 72.2024 56.7386 71.989 56.924 71.7342C57.1164 71.4753 57.2411 71.1954 57.2983 70.8945L55.9123 68.4939C55.6271 68.3999 55.3244 68.3715 55.004 68.4086C54.6837 68.4458 54.378 68.5484 54.087 68.7164C53.5813 69.0084 53.2552 69.4276 53.1088 69.974C52.9624 70.5204 53.0392 71.0534 53.3392 71.573ZM65.7222 66.7793C66.1379 66.5393 66.4882 66.2261 66.7733 65.8398C67.0543 65.4466 67.2365 65.0182 67.3198 64.5544L68.4568 64.8678C68.3275 65.4598 68.069 66.0201 67.6814 66.5488C67.2967 67.0665 66.8272 67.4853 66.273 67.8053C65.7395 68.1133 65.1812 68.3063 64.5981 68.3843C64.0219 68.4583 63.4681 68.4271 62.9366 68.2905C62.4011 68.147 61.9009 67.9047 61.436 67.5634C60.974 67.2112 60.593 66.7753 60.293 66.2557C59.989 65.7292 59.802 65.1812 59.732 64.612C59.6689 64.0387 59.7111 63.4878 59.8586 62.9593C60.0021 62.4238 60.2499 61.925 60.6021 61.4631C60.9612 60.9971 61.4075 60.6101 61.941 60.3021C62.5091 59.9741 63.119 59.7744 63.7706 59.703C64.4251 59.6207 65.0341 59.6756 65.5976 59.8675L65.3022 61.0358C64.841 60.8771 64.3665 60.8231 63.8785 60.8739C63.3905 60.9247 62.9387 61.0701 62.523 61.3101C62.1419 61.5301 61.8251 61.8054 61.5726 62.136C61.32 62.4665 61.1445 62.8265 61.046 63.2159C60.9505 63.5944 60.9314 63.9934 60.9888 64.4129C61.0423 64.8254 61.181 65.2257 61.405 65.6137C61.629 66.0017 61.9083 66.3254 62.2428 66.5849C62.5734 66.8374 62.9299 67.015 63.3124 67.1174C63.6949 67.2199 64.0944 67.2479 64.511 67.2014C64.9305 67.144 65.3342 67.0033 65.7222 66.7793ZM66.7669 57.3634L71.0989 64.8666L70.0597 65.4666L65.8597 58.192L66.7669 57.3634ZM74.05 63.2875C73.475 63.6195 72.9213 63.7406 72.3891 63.6507C71.8568 63.5608 71.4527 63.2768 71.1767 62.7987C70.8887 62.2999 70.8532 61.7985 71.0702 61.2944C71.2833 60.7834 71.7224 60.3359 72.3875 59.9519C72.6438 59.8039 72.9092 59.6876 73.1837 59.6031C73.4542 59.5116 73.7263 59.4468 74 59.4089L73.676 58.8477C73.46 58.4736 73.1872 58.257 72.8575 58.1979C72.5277 58.1389 72.1551 58.2293 71.7394 58.4693C71.4969 58.6093 71.266 58.7935 71.0467 59.0217C70.8234 59.2429 70.593 59.5238 70.3554 59.8642L69.5209 59.3068C69.8078 58.8917 70.1039 58.5406 70.4092 58.2535C70.7106 57.9594 71.0344 57.7124 71.3809 57.5124C72.0667 57.1164 72.6928 56.9767 73.2589 57.0932C73.8279 57.1989 74.2865 57.553 74.6345 58.1558L76.6565 61.658L75.638 62.246L75.374 61.7887C75.2464 62.1118 75.0736 62.3964 74.8554 62.6424C74.6372 62.8885 74.3687 63.1035 74.05 63.2875ZM72.1623 62.2019C72.3103 62.4583 72.5377 62.6041 72.8445 62.6395C73.1582 62.6708 73.4917 62.5845 73.845 62.3805C74.1222 62.2205 74.3545 62.0309 74.5421 61.8118C74.7296 61.5927 74.8689 61.3459 74.96 61.0717L74.432 60.1571C74.1671 60.1623 73.9098 60.2046 73.6601 60.2841C73.4064 60.3567 73.1479 60.469 72.8846 60.621C72.5105 60.837 72.2586 61.0887 72.1289 61.376C71.9992 61.6634 72.0103 61.9387 72.1623 62.2019ZM76.9591 60.5688L77.1243 59.5589C77.5254 59.6136 77.902 59.6179 78.2541 59.5717C78.609 59.5145 78.9355 59.4 79.2334 59.228C79.6075 59.012 79.8704 58.7632 80.0219 58.4817C80.1735 58.2002 80.1813 57.9417 80.0453 57.7062C79.9373 57.5191 79.782 57.4101 79.5794 57.3793C79.3768 57.3484 79.1181 57.3962 78.8031 57.5227L77.769 57.9396C77.2054 58.1633 76.7185 58.232 76.3083 58.1455C75.901 58.0481 75.5794 57.795 75.3434 57.3862C75.0674 56.9082 75.0359 56.4137 75.2489 55.9027C75.458 55.3848 75.8708 54.9478 76.4874 54.5918C76.8754 54.3678 77.2746 54.2112 77.685 54.1221C78.1024 54.0289 78.5433 54.0007 79.0079 54.0373L78.8738 55.0292C78.4709 55.0032 78.1068 55.0287 77.7817 55.1055C77.4595 55.1715 77.1598 55.2844 76.8827 55.4444C76.564 55.6284 76.3456 55.8422 76.2277 56.0859C76.1097 56.3295 76.1127 56.5587 76.2367 56.7735C76.3487 56.9675 76.5005 57.0784 76.6921 57.1064C76.8867 57.1234 77.1539 57.0661 77.4936 56.9346L78.5277 56.5177C79.0913 56.2939 79.5802 56.2287 79.9944 56.3221C80.4156 56.4116 80.7441 56.6606 80.9801 57.0694C81.1161 57.305 81.1852 57.5607 81.1875 57.8365C81.1926 58.1014 81.1367 58.3646 81.0198 58.6261C80.9098 58.8836 80.7457 59.1354 80.5275 59.3815C80.3053 59.6206 80.0383 59.8302 79.7266 60.0102C79.2693 60.2742 78.8018 60.4564 78.3239 60.5567C77.853 60.6531 77.3981 60.6571 76.9591 60.5688ZM81.8508 57.7445L82.016 56.7346C82.4171 56.7894 82.7937 56.7937 83.1457 56.7475C83.5007 56.6903 83.8272 56.5757 84.1251 56.4037C84.4992 56.1877 84.7621 55.939 84.9136 55.6575C85.0652 55.376 85.0729 55.1175 84.9369 54.8819C84.8289 54.6949 84.6737 54.5859 84.4711 54.5551C84.2685 54.5242 84.0098 54.572 83.6948 54.6984L82.6607 55.1153C82.0971 55.3391 81.6102 55.4078 81.2 55.3213C80.7927 55.2239 80.4711 54.9708 80.2351 54.562C79.9591 54.084 79.9276 53.5895 80.1406 53.0785C80.3497 52.5606 80.7625 52.1236 81.3791 51.7676C81.7671 51.5436 82.1663 51.387 82.5767 51.2979C82.994 51.2047 83.435 51.1765 83.8995 51.2131L83.7655 52.205C83.3626 52.179 82.9985 52.2044 82.6734 52.2813C82.3512 52.3472 82.0515 52.4602 81.7744 52.6202C81.4557 52.8042 81.2373 53.018 81.1193 53.2617C81.0014 53.5053 81.0044 53.7345 81.1284 53.9493C81.2404 54.1433 81.3922 54.2542 81.5838 54.2821C81.7784 54.2991 82.0455 54.2419 82.3853 54.1104L83.4194 53.6935C83.983 53.4697 84.4719 53.4045 84.8861 53.4979C85.3073 53.5873 85.6358 53.8364 85.8718 54.2452C86.0078 54.4807 86.0769 54.7364 86.0792 55.0123C86.0843 55.2772 86.0284 55.5404 85.9115 55.8019C85.8015 56.0594 85.6374 56.3112 85.4192 56.5572C85.197 56.7964 84.93 57.006 84.6183 57.186C84.161 57.45 83.6935 57.6321 83.2156 57.7325C82.7447 57.8289 82.2898 57.8329 81.8508 57.7445Z" fill="white"/>
<path d="M101.624 55.2099C98.6636 48.6365 94.6688 39.5214 90.0893 34.0953C71.3051 44.3658 52.6538 54.7441 34.3382 65.8589C27.388 70.0767 20.556 75.7629 13.093 79.0037C16.56 84.4048 19.7693 89.945 23.1873 95.3633C24.587 97.5822 26.7979 99.54 27.8652 101.949C48.5304 89.8097 68.2087 75.9219 89.3684 64.6057C93.4241 62.4367 97.0997 59.5112 101.354 57.6894C90.3461 62.861 80.0605 69.8288 69.6185 76.0346C62.6374 80.1836 54.9904 83.1829 47.9631 87.3093C41.3184 91.2111 35.4193 96.3881 28.7149 100.142C22.4981 93.0838 15.712 86.1643 10.0116 78.6704C14.2013 76.133 18.097 73.0987 22.3108 70.6196C44.7413 57.4228 67.4301 44.7401 90.4656 32.6552C94.5605 39.8369 96.8732 47.7154 100.529 55.053C95.6757 48.034 92.9214 39.7888 88.2595 32.6895C85.1174 33.6491 82.1296 35.943 79.2791 37.5248C71.7677 41.6929 64.3199 45.7934 57.0125 50.3146C47.8218 56.0009 38.7592 61.8046 29.6478 67.6246C23.4026 71.6137 15.9477 75.2113 10.5175 80.3708C15.6747 87.7929 20.9556 95.1471 26.1963 102.502" stroke="white" stroke-miterlimit="1.5" stroke-linecap="round" stroke-linejoin="round"/>
<path d="M84.1666 23.8562C84.1213 20.846 84.1648 17.8508 84.246 14.8423" stroke="white" stroke-miterlimit="1.5" stroke-linecap="round" stroke-linejoin="round"/>
<path d="M90.4807 26.0821C91.5716 22.8502 93.1866 19.8529 94.5899 16.7574" stroke="white" stroke-miterlimit="1.5" stroke-linecap="round" stroke-linejoin="round"/>
<path d="M95.5586 30.223C97.6489 28.2721 100.01 26.4936 102.633 25.35" stroke="white" stroke-miterlimit="1.5" stroke-linecap="round" stroke-linejoin="round"/>
</svg>
