<svg width="64" height="64" viewBox="0 0 64 64" fill="none" xmlns="http://www.w3.org/2000/svg">
<path d="M44.4679 12.8873L51.1126 19.5289L44.4679 12.8873ZM48.7408 7.03626L30.7736 25.0035C29.8452 25.9306 29.2121 27.1117 28.954 28.398L27.2943 36.7056L35.6019 35.0428C36.8882 34.7856 38.0678 34.155 38.9964 33.2263L56.9637 15.2591C57.5036 14.7192 57.9319 14.0782 58.2241 13.3728C58.5163 12.6673 58.6667 11.9112 58.6667 11.1477C58.6667 10.3841 58.5163 9.62803 58.2241 8.92259C57.9319 8.21715 57.5036 7.57617 56.9637 7.03626C56.4237 6.49634 55.7828 6.06805 55.0773 5.77585C54.3719 5.48365 53.6158 5.33325 52.8522 5.33325C52.0887 5.33325 51.3326 5.48365 50.6272 5.77585C49.9217 6.06805 49.2808 6.49634 48.7408 7.03626V7.03626Z" stroke="#FFC93E" stroke-width="2.5" stroke-linecap="round" stroke-linejoin="round"/>
<path d="M52.3926 42.98V52.3919C52.3926 54.056 51.7316 55.652 50.5549 56.8287C49.3782 58.0054 47.7822 58.6665 46.1181 58.6665H11.6079C9.94379 58.6665 8.34783 58.0054 7.17112 56.8287C5.9944 55.652 5.33334 54.056 5.33334 52.3919V17.8818C5.33334 16.2176 5.9944 14.6217 7.17112 13.445C8.34783 12.2682 9.94379 11.6072 11.6079 11.6072H21.0198" stroke="#FFC93E" stroke-width="2.5" stroke-linecap="round" stroke-linejoin="round"/>
</svg>
