<svg width="64" height="64" viewBox="0 0 64 64" fill="none" xmlns="http://www.w3.org/2000/svg">
<path d="M18.6667 31.1257V45.3331H32.8741L29.9111 42.3702H21.6296V34.0887L18.6667 31.1257Z" fill="#FFC93E"/>
<path d="M56.9926 53.1703L52.7407 48.8592V52.7407H11.2592V46.5925H14.2222V44.2222H11.2592V34.3703H14.2222V32H11.2592V22.5185H14.2222V20.1481H11.2592V11.8666L34.8741 35.3481V31.1703L10.8296 7.2444C10.6224 7.03547 10.3576 6.89298 10.0691 6.8351C9.78062 6.77721 9.4814 6.80656 9.20964 6.9194C8.93787 7.03224 8.70586 7.22346 8.54319 7.46867C8.38052 7.71389 8.29456 8.00199 8.29627 8.29625V54.2222C8.29627 54.6151 8.45236 54.9919 8.73019 55.2697C9.00802 55.5476 9.38484 55.7037 9.77776 55.7037H55.9407C56.235 55.7054 56.5231 55.6194 56.7683 55.4567C57.0135 55.2941 57.2047 55.0621 57.3176 54.7903C57.4304 54.5185 57.4597 54.2193 57.4019 53.9308C57.344 53.6423 57.2015 53.3775 56.9926 53.1703Z" fill="#FFC93E"/>
<path d="M40.8889 49.7776H46.8148C47.6006 49.7776 48.3543 49.4655 48.9099 48.9098C49.4656 48.3541 49.7778 47.6005 49.7778 46.8147V18.2221L46.3703 11.9554C46.1068 11.4988 45.7263 11.1208 45.2679 10.8604C44.8096 10.6 44.29 10.4666 43.7629 10.4739C43.2239 10.4782 42.6962 10.6295 42.2368 10.9114C41.7773 11.1933 41.4035 11.5953 41.1555 12.0739L37.9259 18.2517V46.8147C37.9259 47.6005 38.2381 48.3541 38.7937 48.9098C39.3494 49.4655 40.103 49.7776 40.8889 49.7776ZM40.8889 18.9628L43.7629 13.3776L46.8148 18.9776V40.8887H40.8889V18.9628ZM40.8889 43.3035H46.8148V46.9184H40.8889V43.3035Z" fill="#FFC93E"/>
</svg>
