<svg width="24" height="24" viewBox="0 0 24 24" fill="none" xmlns="http://www.w3.org/2000/svg">
<path d="M12 1.5C6.20297 1.5 1.5 6.20297 1.5 12C1.5 17.797 6.20297 22.5 12 22.5C17.797 22.5 22.5 17.8022 22.5 12C22.5 6.19781 17.797 1.5 12 1.5ZM18.6666 6.33984C19.8815 7.76805 20.6046 9.54925 20.7291 11.4202C18.8367 11.3217 16.5727 11.3217 14.7572 11.4914C14.5275 10.9116 14.2922 10.343 14.0353 9.79594C16.1287 8.88844 17.7422 7.69594 18.6666 6.33984ZM12 3.24984C14.0395 3.24634 16.0156 3.95866 17.5837 5.26266C16.6322 6.46547 15.1392 7.51266 13.2797 8.30297C12.2625 6.42188 11.092 4.80328 9.84375 3.52875C10.5482 3.3469 11.2725 3.25322 12 3.24984ZM8.04047 4.20703C9.30375 5.46469 10.4906 7.06641 11.5298 8.94141C9.55547 9.54469 7.29141 9.89062 4.875 9.89062C4.41563 9.89062 3.9675 9.87422 3.52453 9.84656C3.83266 8.63935 4.3949 7.5118 5.17367 6.53927C5.95244 5.56673 6.92981 4.77161 8.04047 4.20703ZM3.26625 11.5842C3.76406 11.6062 4.26703 11.617 4.77562 11.6119C7.53187 11.5791 10.0969 11.1469 12.3009 10.44C12.5087 10.8722 12.7056 11.3152 12.8916 11.7689C12.6252 11.8272 12.3637 11.9056 12.1092 12.0033C9.09609 13.2689 6.72281 15.3084 5.4375 17.775C4.02813 16.1814 3.25007 14.1274 3.24984 12C3.24984 11.8594 3.25547 11.7211 3.26625 11.5842ZM12 20.7502C10.056 20.7525 8.16724 20.1036 6.63516 18.907C7.8 16.5994 9.87797 14.6883 12.4978 13.5037C12.7439 13.3889 13.072 13.2961 13.4494 13.2141C13.7619 14.0778 14.0408 14.9747 14.2861 15.9047C14.6525 17.3083 14.9223 18.7354 15.0938 20.1759C14.1061 20.5543 13.0576 20.7489 12 20.7502ZM16.7306 19.3556C16.5595 17.9001 16.2871 16.4584 15.9155 15.0408C15.728 14.3297 15.5166 13.6406 15.2869 12.968C17.0039 12.8273 19.0603 12.8475 20.6953 12.968C20.5512 14.2606 20.1206 15.5047 19.4347 16.6097C18.7488 17.7148 17.825 18.6529 16.7306 19.3556Z" fill="#FFC93E"/>
</svg>
