<svg width="64" height="64" viewBox="0 0 64 64" fill="none" xmlns="http://www.w3.org/2000/svg">
<path d="M24 45.3332H32M10.6667 10.6666V53.3332C10.6667 54.7477 11.2286 56.1043 12.2288 57.1045C13.229 58.1047 14.5855 58.6666 16 58.6666H48C49.4145 58.6666 50.7711 58.1047 51.7713 57.1045C52.7715 56.1043 53.3334 54.7477 53.3334 53.3332V22.2453C53.3333 21.5347 53.1912 20.8314 52.9155 20.1766C52.6399 19.5217 52.2361 18.9286 51.728 18.4319L39.888 6.85325C38.8917 5.87901 37.5535 5.33343 36.16 5.33325H16C14.5855 5.33325 13.229 5.89515 12.2288 6.89535C11.2286 7.89554 10.6667 9.2521 10.6667 10.6666V10.6666ZM24 34.6666H40H24Z" stroke="#FFC93E" stroke-width="2.5" stroke-linecap="round" stroke-linejoin="round"/>
<path d="M37.3334 5.33325V15.9999C37.3334 17.4144 37.8953 18.771 38.8955 19.7712C39.8957 20.7713 41.2522 21.3333 42.6667 21.3333H53.3334" stroke="#FFC93E" stroke-width="2.5" stroke-linejoin="round"/>
</svg>
