<svg width="115" height="83" viewBox="0 0 115 83" fill="none" xmlns="http://www.w3.org/2000/svg">
<path fill-rule="evenodd" clip-rule="evenodd" d="M111.808 1.58333C111.808 2.45778 112.522 3.16667 113.404 3.16667C114.285 3.16667 115 2.45778 115 1.58333C115 0.708882 114.285 -3.12371e-08 113.404 -6.97701e-08C112.522 -1.08303e-07 111.808 0.708882 111.808 1.58333ZM95.8462 1.58333C95.8462 2.45778 96.5608 3.16667 97.4423 3.16667C98.3238 3.16667 99.0385 2.45778 99.0385 1.58333C99.0385 0.708882 98.3238 -7.28938e-07 97.4423 -7.67471e-07C96.5608 -8.06004e-07 95.8462 0.708882 95.8462 1.58333ZM81.4808 3.16667C80.5992 3.16667 79.8846 2.45778 79.8846 1.58333C79.8846 0.708881 80.5992 -1.50371e-06 81.4808 -1.46517e-06C82.3623 -1.42664e-06 83.0769 0.708881 83.0769 1.58333C83.0769 2.45778 82.3623 3.16667 81.4808 3.16667ZM63.9231 1.58333C63.9231 2.45778 64.6377 3.16666 65.5192 3.16666C66.4008 3.16666 67.1154 2.45778 67.1154 1.58333C67.1154 0.70888 66.4008 -2.12434e-06 65.5192 -2.16287e-06C64.6377 -2.20141e-06 63.9231 0.70888 63.9231 1.58333ZM49.5577 3.16666C48.6762 3.16666 47.9615 2.45778 47.9615 1.58333C47.9615 0.70888 48.6762 -2.89911e-06 49.5577 -2.86057e-06C50.4392 -2.82204e-06 51.1538 0.70888 51.1538 1.58333C51.1538 2.45778 50.4392 3.16666 49.5577 3.16666ZM32 1.58333C32 2.45778 32.7146 3.16666 33.5962 3.16666C34.4777 3.16666 35.1923 2.45778 35.1923 1.58333C35.1923 0.708879 34.4777 -3.51974e-06 33.5962 -3.55828e-06C32.7146 -3.59681e-06 32 0.708879 32 1.58333ZM113.404 19C112.522 19 111.808 18.2911 111.808 17.4167C111.808 16.5422 112.522 15.8333 113.404 15.8333C114.285 15.8333 115 16.5422 115 17.4167C115 18.2911 114.285 19 113.404 19ZM95.8462 17.4167C95.8462 18.2911 96.5608 19 97.4423 19C98.3238 19 99.0385 18.2911 99.0385 17.4167C99.0385 16.5422 98.3238 15.8333 97.4423 15.8333C96.5608 15.8333 95.8462 16.5422 95.8462 17.4167ZM81.4808 19C80.5992 19 79.8846 18.2911 79.8846 17.4167C79.8846 16.5422 80.5992 15.8333 81.4808 15.8333C82.3623 15.8333 83.0769 16.5422 83.0769 17.4167C83.0769 18.2911 82.3623 19 81.4808 19ZM63.9231 17.4167C63.9231 18.2911 64.6377 19 65.5192 19C66.4008 19 67.1154 18.2911 67.1154 17.4167C67.1154 16.5422 66.4008 15.8333 65.5192 15.8333C64.6377 15.8333 63.9231 16.5422 63.9231 17.4167ZM49.5577 19C48.6762 19 47.9615 18.2911 47.9615 17.4167C47.9615 16.5422 48.6762 15.8333 49.5577 15.8333C50.4392 15.8333 51.1538 16.5422 51.1538 17.4167C51.1538 18.2911 50.4392 19 49.5577 19ZM32 17.4167C32 18.2911 32.7146 19 33.5962 19C34.4777 19 35.1923 18.2911 35.1923 17.4167C35.1923 16.5422 34.4777 15.8333 33.5962 15.8333C32.7146 15.8333 32 16.5422 32 17.4167Z" fill="white"/>
<path fill-rule="evenodd" clip-rule="evenodd" d="M1.58333 3.19231C2.45778 3.19231 3.16667 2.47769 3.16667 1.59615C3.16667 0.714622 2.45778 0 1.58333 0C0.708882 0 0 0.714622 0 1.59615C0 2.47769 0.708882 3.19231 1.58333 3.19231ZM1.58333 19.1538C2.45778 19.1538 3.16667 18.4392 3.16667 17.5577C3.16667 16.6762 2.45778 15.9615 1.58333 15.9615C0.708882 15.9615 0 16.6762 0 17.5577C0 18.4392 0.708882 19.1538 1.58333 19.1538ZM3.16667 33.5192C3.16667 34.4008 2.45778 35.1154 1.58333 35.1154C0.708882 35.1154 0 34.4008 0 33.5192C0 32.6377 0.708882 31.9231 1.58333 31.9231C2.45778 31.9231 3.16667 32.6377 3.16667 33.5192ZM1.58333 51.0769C2.45778 51.0769 3.16667 50.3623 3.16667 49.4808C3.16667 48.5992 2.45778 47.8846 1.58333 47.8846C0.708882 47.8846 0 48.5992 0 49.4808C0 50.3623 0.708882 51.0769 1.58333 51.0769ZM3.16667 65.4423C3.16667 66.3238 2.45778 67.0385 1.58333 67.0385C0.708882 67.0385 0 66.3238 0 65.4423C0 64.5608 0.708882 63.8462 1.58333 63.8462C2.45778 63.8462 3.16667 64.5608 3.16667 65.4423ZM1.58333 83C2.45778 83 3.16667 82.2854 3.16667 81.4038C3.16667 80.5223 2.45778 79.8077 1.58333 79.8077C0.708882 79.8077 0 80.5223 0 81.4038C0 82.2854 0.708882 83 1.58333 83ZM19 1.59615C19 2.47769 18.2911 3.19231 17.4167 3.19231C16.5422 3.19231 15.8333 2.47769 15.8333 1.59615C15.8333 0.714622 16.5422 0 17.4167 0C18.2911 0 19 0.714622 19 1.59615ZM17.4167 19.1538C18.2911 19.1538 19 18.4392 19 17.5577C19 16.6762 18.2911 15.9615 17.4167 15.9615C16.5422 15.9615 15.8333 16.6762 15.8333 17.5577C15.8333 18.4392 16.5422 19.1538 17.4167 19.1538ZM19 33.5192C19 34.4008 18.2911 35.1154 17.4167 35.1154C16.5422 35.1154 15.8333 34.4008 15.8333 33.5192C15.8333 32.6377 16.5422 31.9231 17.4167 31.9231C18.2911 31.9231 19 32.6377 19 33.5192ZM17.4167 51.0769C18.2911 51.0769 19 50.3623 19 49.4808C19 48.5992 18.2911 47.8846 17.4167 47.8846C16.5422 47.8846 15.8333 48.5992 15.8333 49.4808C15.8333 50.3623 16.5422 51.0769 17.4167 51.0769ZM19 65.4423C19 66.3238 18.2911 67.0385 17.4167 67.0385C16.5422 67.0385 15.8333 66.3238 15.8333 65.4423C15.8333 64.5608 16.5422 63.8462 17.4167 63.8462C18.2911 63.8462 19 64.5608 19 65.4423ZM17.4167 83C18.2911 83 19 82.2854 19 81.4038C19 80.5223 18.2911 79.8077 17.4167 79.8077C16.5422 79.8077 15.8333 80.5223 15.8333 81.4038C15.8333 82.2854 16.5422 83 17.4167 83Z" fill="white"/>
</svg>
