<svg width="70" height="70" viewBox="0 0 70 70" fill="none" xmlns="http://www.w3.org/2000/svg">
<circle cx="35" cy="35" r="35" transform="rotate(-180 35 35)" fill="#3A425A"/>
<path fill-rule="evenodd" clip-rule="evenodd" d="M21.875 34.9998C21.875 35.2484 21.9738 35.4869 22.1496 35.6627C22.3254 35.8385 22.5639 35.9373 22.8125 35.9373L44.9244 35.9373L39.0238 41.836C38.8477 42.0121 38.7488 42.2508 38.7488 42.4998C38.7488 42.7487 38.8477 42.9875 39.0238 43.1635C39.1998 43.3396 39.4385 43.4385 39.6875 43.4385C39.9365 43.4385 40.1752 43.3396 40.3512 43.1635L47.8513 35.6635C47.9386 35.5765 48.0078 35.473 48.0551 35.3591C48.1023 35.2452 48.1267 35.1231 48.1267 34.9998C48.1267 34.8765 48.1023 34.7544 48.0551 34.6405C48.0078 34.5266 47.9386 34.4231 47.8513 34.336L40.3513 26.836C40.1752 26.66 39.9365 26.5611 39.6875 26.5611C39.4385 26.5611 39.1998 26.66 39.0238 26.836C38.8477 27.0121 38.7488 27.2508 38.7488 27.4998C38.7488 27.7487 38.8477 27.9875 39.0238 28.1635L44.9244 34.0623L22.8125 34.0623C22.5639 34.0623 22.3254 34.1611 22.1496 34.3369C21.9738 34.5127 21.875 34.7512 21.875 34.9998Z" fill="white"/>
</svg>
