<svg width="111" height="107" viewBox="0 0 111 107" fill="none" xmlns="http://www.w3.org/2000/svg">
<path d="M77.2988 106.556C76.9438 106.708 76.5869 106.856 76.2281 107L34.7719 107C34.4131 106.856 34.0562 106.708 33.7012 106.556L77.2988 106.556Z" fill="white"/>
<path d="M85.6409 102.116C85.4096 102.266 85.1771 102.414 84.9435 102.56L26.0565 102.56C25.8228 102.414 25.5904 102.266 25.3591 102.116L85.6409 102.116Z" fill="white"/>
<path d="M91.5904 97.6763C91.4162 97.8254 91.2411 97.9734 91.065 98.1203L19.935 98.1203C19.7589 97.9734 19.5838 97.8254 19.4095 97.6763L91.5904 97.6763Z" fill="white"/>
<path d="M96.2141 93.2365C96.076 93.3853 95.9371 93.5333 95.7974 93.6805L15.2026 93.6805C15.0629 93.5333 14.924 93.3853 14.7859 93.2365L96.2141 93.2365Z" fill="white"/>
<path d="M99.9264 88.7967C99.8147 88.9453 99.7023 89.0933 99.5892 89.2407L11.4108 89.2407C11.2977 89.0932 11.1853 88.9452 11.0736 88.7967L99.9264 88.7967Z" fill="white"/>
<path d="M102.939 84.3568C102.849 84.5053 102.758 84.6533 102.666 84.8008L8.33437 84.8008C8.24242 84.6533 8.15114 84.5053 8.06054 84.3568L102.939 84.3568Z" fill="white"/>
<path d="M105.378 79.917C105.305 80.0654 105.231 80.2134 105.157 80.361L5.84265 80.361C5.76851 80.2134 5.69502 80.0654 5.62216 79.917L105.378 79.917Z" fill="white"/>
<path d="M107.321 75.4772C107.264 75.6255 107.206 75.7735 107.147 75.9212L3.85278 75.9212C3.79427 75.7735 3.73637 75.6255 3.67909 75.4772L107.321 75.4772Z" fill="white"/>
<path d="M108.822 71.0373C108.779 71.1856 108.735 71.3336 108.69 71.4813L2.30952 71.4813C2.26514 71.3336 2.22136 71.1856 2.17819 71.0373L108.822 71.0373Z" fill="white"/>
<path d="M109.917 66.5975C109.887 66.7457 109.856 66.8937 109.825 67.0415L1.17494 67.0415C1.14365 66.8937 1.11297 66.7457 1.08287 66.5975L109.917 66.5975Z" fill="white"/>
<path d="M110.632 62.1577C110.614 62.3059 110.596 62.4538 110.577 62.6017L0.422734 62.6017C0.403836 62.4538 0.385528 62.3058 0.367796 62.1577L110.632 62.1577Z" fill="white"/>
<path d="M110.984 57.7178C110.978 57.866 110.972 58.014 110.965 58.1618L0.0349473 58.1618C0.0279589 58.014 0.0215466 57.866 0.0157173 57.7178L110.984 57.7178Z" fill="white"/>
<path d="M110.984 53.278C110.99 53.4259 110.995 53.5739 111 53.722L-1.24893e-06 53.722C0.00465546 53.5738 0.00990188 53.4258 0.0157177 53.278L110.984 53.278Z" fill="white"/>
<path d="M110.632 48.8382C110.65 48.986 110.667 49.134 110.684 49.2822L0.316485 49.2822C0.333011 49.134 0.350112 48.986 0.367797 48.8382L110.632 48.8382Z" fill="white"/>
<path d="M109.917 44.3983C109.947 44.5461 109.977 44.6941 110.005 44.8423L0.994587 44.8423C1.02342 44.6941 1.05285 44.5461 1.08287 44.3983L109.917 44.3983Z" fill="white"/>
<path d="M108.822 39.9585C108.865 40.1063 108.907 40.2542 108.949 40.4025L2.0509 40.4025C2.09273 40.2542 2.13516 40.1062 2.17819 39.9585L108.822 39.9585Z" fill="white"/>
<path d="M107.321 35.5187C107.378 35.6664 107.434 35.8144 107.49 35.9627L3.50982 35.9627C3.56563 35.8144 3.62206 35.6664 3.6791 35.5187L107.321 35.5187Z" fill="white"/>
<path d="M105.378 31.0788C105.45 31.2265 105.522 31.3745 105.593 31.5228L5.40661 31.5228C5.47782 31.3745 5.54968 31.2265 5.62217 31.0788L105.378 31.0788Z" fill="white"/>
<path d="M102.939 26.639C103.03 26.7866 103.119 26.9345 103.208 27.083L7.79242 27.083C7.88113 26.9345 7.9705 26.7865 8.06055 26.639L102.939 26.639Z" fill="white"/>
<path d="M99.9264 22.1992C100.037 22.3466 100.147 22.4946 100.257 22.6432L10.7434 22.6431C10.8527 22.4946 10.9628 22.3466 11.0736 22.1992L99.9264 22.1992Z" fill="white"/>
<path d="M96.2141 17.7593C96.3508 17.9066 96.4867 18.0546 96.6218 18.2033L14.3782 18.2033C14.5133 18.0546 14.6492 17.9066 14.7859 17.7593L96.2141 17.7593Z" fill="white"/>
<path d="M91.5904 13.3195C91.7622 13.4665 91.9331 13.6145 92.1031 13.7635L18.8969 13.7635C19.0669 13.6145 19.2378 13.4665 19.4096 13.3195L91.5904 13.3195Z" fill="white"/>
<path d="M85.6409 8.87967C85.8671 9.02607 86.0922 9.17407 86.3161 9.32366L24.6839 9.32365C24.9078 9.17407 25.1329 9.02607 25.3591 8.87967L85.6409 8.87967Z" fill="white"/>
<path d="M77.2988 4.43984C77.6377 4.58457 77.9749 4.73258 78.3104 4.88382L32.6896 4.88382C33.0251 4.73258 33.3623 4.58457 33.7012 4.43983L77.2988 4.43984Z" fill="white"/>
<path d="M48.4428 0.443984C50.7539 0.151001 53.1093 1.31673e-06 55.5 1.52573e-06C57.8907 1.73473e-06 60.2461 0.151002 62.5572 0.443986L48.4428 0.443984Z" fill="white"/>
</svg>
