<svg width="70" height="70" viewBox="0 0 70 70" fill="none" xmlns="http://www.w3.org/2000/svg">
<circle cx="35" cy="35" r="35" fill="#3A425A"/>
<path fill-rule="evenodd" clip-rule="evenodd" d="M48.125 35.0002C48.125 34.7516 48.0262 34.5131 47.8504 34.3373C47.6746 34.1615 47.4361 34.0627 47.1875 34.0627H25.0756L30.9762 28.164C31.1523 27.9879 31.2512 27.7492 31.2512 27.5002C31.2512 27.2513 31.1523 27.0125 30.9762 26.8365C30.8002 26.6604 30.5615 26.5615 30.3125 26.5615C30.0635 26.5615 29.8248 26.6604 29.6488 26.8365L22.1488 34.3365C22.0614 34.4235 21.9922 34.527 21.9449 34.6409C21.8977 34.7548 21.8733 34.8769 21.8733 35.0002C21.8733 35.1235 21.8977 35.2456 21.9449 35.3595C21.9922 35.4734 22.0614 35.5769 22.1488 35.664L29.6488 43.164C29.8248 43.34 30.0635 43.4389 30.3125 43.4389C30.5615 43.4389 30.8002 43.34 30.9762 43.164C31.1523 42.9879 31.2512 42.7492 31.2512 42.5002C31.2512 42.2513 31.1523 42.0125 30.9762 41.8365L25.0756 35.9377H47.1875C47.4361 35.9377 47.6746 35.8389 47.8504 35.6631C48.0262 35.4873 48.125 35.2488 48.125 35.0002Z" fill="white"/>
</svg>
