<svg width="83" height="115" viewBox="0 0 83 115" fill="none" xmlns="http://www.w3.org/2000/svg">
<path fill-rule="evenodd" clip-rule="evenodd" d="M1.58333 3.19231C2.45778 3.19231 3.16667 2.47769 3.16667 1.59615C3.16667 0.714622 2.45778 0 1.58333 0C0.708882 0 0 0.714622 0 1.59615C0 2.47769 0.708882 3.19231 1.58333 3.19231ZM1.58333 19.1538C2.45778 19.1538 3.16667 18.4392 3.16667 17.5577C3.16667 16.6762 2.45778 15.9615 1.58333 15.9615C0.708882 15.9615 0 16.6762 0 17.5577C0 18.4392 0.708882 19.1538 1.58333 19.1538ZM3.16667 33.5192C3.16667 34.4008 2.45778 35.1154 1.58333 35.1154C0.708882 35.1154 0 34.4008 0 33.5192C0 32.6377 0.708882 31.9231 1.58333 31.9231C2.45778 31.9231 3.16667 32.6377 3.16667 33.5192ZM1.58333 51.0769C2.45778 51.0769 3.16667 50.3623 3.16667 49.4808C3.16667 48.5992 2.45778 47.8846 1.58333 47.8846C0.708882 47.8846 0 48.5992 0 49.4808C0 50.3623 0.708882 51.0769 1.58333 51.0769ZM3.16667 65.4423C3.16667 66.3238 2.45778 67.0385 1.58333 67.0385C0.708882 67.0385 0 66.3238 0 65.4423C0 64.5608 0.708882 63.8462 1.58333 63.8462C2.45778 63.8462 3.16667 64.5608 3.16667 65.4423ZM1.58333 83C2.45778 83 3.16667 82.2854 3.16667 81.4038C3.16667 80.5223 2.45778 79.8077 1.58333 79.8077C0.708882 79.8077 0 80.5223 0 81.4038C0 82.2854 0.708882 83 1.58333 83ZM19 1.59615C19 2.47769 18.2911 3.19231 17.4167 3.19231C16.5422 3.19231 15.8333 2.47769 15.8333 1.59615C15.8333 0.714622 16.5422 0 17.4167 0C18.2911 0 19 0.714622 19 1.59615ZM17.4167 19.1538C18.2911 19.1538 19 18.4392 19 17.5577C19 16.6762 18.2911 15.9615 17.4167 15.9615C16.5422 15.9615 15.8333 16.6762 15.8333 17.5577C15.8333 18.4392 16.5422 19.1538 17.4167 19.1538ZM19 33.5192C19 34.4008 18.2911 35.1154 17.4167 35.1154C16.5422 35.1154 15.8333 34.4008 15.8333 33.5192C15.8333 32.6377 16.5422 31.9231 17.4167 31.9231C18.2911 31.9231 19 32.6377 19 33.5192ZM17.4167 51.0769C18.2911 51.0769 19 50.3623 19 49.4808C19 48.5992 18.2911 47.8846 17.4167 47.8846C16.5422 47.8846 15.8333 48.5992 15.8333 49.4808C15.8333 50.3623 16.5422 51.0769 17.4167 51.0769ZM19 65.4423C19 66.3238 18.2911 67.0385 17.4167 67.0385C16.5422 67.0385 15.8333 66.3238 15.8333 65.4423C15.8333 64.5608 16.5422 63.8462 17.4167 63.8462C18.2911 63.8462 19 64.5608 19 65.4423ZM17.4167 83C18.2911 83 19 82.2854 19 81.4038C19 80.5223 18.2911 79.8077 17.4167 79.8077C16.5422 79.8077 15.8333 80.5223 15.8333 81.4038C15.8333 82.2854 16.5422 83 17.4167 83Z" fill="white"/>
<path fill-rule="evenodd" clip-rule="evenodd" d="M3.19231 113.417C3.19231 112.542 2.47769 111.833 1.59615 111.833C0.714622 111.833 -1.07433e-07 112.542 -6.92097e-08 113.417C-3.09862e-08 114.291 0.714622 115 1.59615 115C2.47769 115 3.19231 114.291 3.19231 113.417ZM19.1538 113.417C19.1538 112.542 18.4392 111.833 17.5577 111.833C16.6762 111.833 15.9615 112.542 15.9615 113.417C15.9615 114.291 16.6762 115 17.5577 115C18.4392 115 19.1538 114.291 19.1538 113.417ZM33.5192 111.833C34.4008 111.833 35.1154 112.542 35.1154 113.417C35.1154 114.291 34.4008 115 33.5192 115C32.6377 115 31.9231 114.291 31.9231 113.417C31.9231 112.542 32.6377 111.833 33.5192 111.833ZM51.0769 113.417C51.0769 112.542 50.3623 111.833 49.4808 111.833C48.5992 111.833 47.8846 112.542 47.8846 113.417C47.8846 114.291 48.5992 115 49.4808 115C50.3623 115 51.0769 114.291 51.0769 113.417ZM65.4423 111.833C66.3238 111.833 67.0385 112.542 67.0385 113.417C67.0385 114.291 66.3238 115 65.4423 115C64.5608 115 63.8462 114.291 63.8462 113.417C63.8462 112.542 64.5608 111.833 65.4423 111.833ZM83 113.417C83 112.542 82.2854 111.833 81.4038 111.833C80.5223 111.833 79.8077 112.542 79.8077 113.417C79.8077 114.291 80.5223 115 81.4038 115C82.2854 115 83 114.291 83 113.417ZM1.59615 96C2.47768 96 3.19231 96.7089 3.19231 97.5833C3.19231 98.4578 2.47768 99.1667 1.59615 99.1667C0.714622 99.1667 -7.23083e-07 98.4578 -7.61307e-07 97.5833C-7.9953e-07 96.7089 0.714622 96 1.59615 96ZM19.1538 97.5833C19.1538 96.7089 18.4392 96 17.5577 96C16.6762 96 15.9615 96.7089 15.9615 97.5833C15.9615 98.4578 16.6762 99.1667 17.5577 99.1667C18.4392 99.1667 19.1538 98.4578 19.1538 97.5833ZM33.5192 96C34.4008 96 35.1154 96.7089 35.1154 97.5833C35.1154 98.4578 34.4008 99.1667 33.5192 99.1667C32.6377 99.1667 31.9231 98.4578 31.9231 97.5833C31.9231 96.7089 32.6377 96 33.5192 96ZM51.0769 97.5833C51.0769 96.7089 50.3623 96 49.4808 96C48.5992 96 47.8846 96.7089 47.8846 97.5833C47.8846 98.4578 48.5992 99.1667 49.4808 99.1667C50.3623 99.1667 51.0769 98.4578 51.0769 97.5833ZM65.4423 96C66.3238 96 67.0385 96.7089 67.0385 97.5833C67.0385 98.4578 66.3238 99.1667 65.4423 99.1667C64.5608 99.1667 63.8462 98.4578 63.8462 97.5833C63.8462 96.7089 64.5608 96 65.4423 96ZM83 97.5833C83 96.7089 82.2854 96 81.4038 96C80.5223 96 79.8077 96.7089 79.8077 97.5833C79.8077 98.4578 80.5223 99.1667 81.4038 99.1667C82.2854 99.1667 83 98.4578 83 97.5833Z" fill="white"/>
</svg>
