<svg width="265" height="202" viewBox="0 0 265 202" fill="none" xmlns="http://www.w3.org/2000/svg">
<path d="M68.4802 167.487L56.6009 153.783L59.6788 152.337L67.9784 162.61L68.125 162.541L65.7113 149.504L68.5116 148.189L77.0154 158.375L77.1542 158.31L74.5441 145.355L77.622 143.909L80.5837 161.802L77.7603 163.128L69.3909 153.529L69.2674 153.587L71.3036 166.161L68.4802 167.487ZM90.9716 157.206C89.8145 157.749 88.692 157.966 87.6043 157.855C86.5166 157.745 85.5238 157.341 84.6259 156.646C83.733 155.948 82.9992 154.987 82.4243 153.763C81.8494 152.539 81.5772 151.358 81.6077 150.22C81.6433 149.08 81.9658 148.056 82.5752 147.148C83.1846 146.24 84.0679 145.515 85.225 144.971C86.3822 144.428 87.5046 144.211 88.5923 144.322C89.68 144.432 90.6714 144.839 91.5667 145.542C92.467 146.243 93.2047 147.205 93.7796 148.429C94.3545 149.653 94.6229 150.833 94.5849 151.968C94.552 153.101 94.2308 154.121 93.6214 155.029C93.012 155.937 92.1287 156.662 90.9716 157.206ZM89.9363 154.961C90.5637 154.667 91.0073 154.248 91.2672 153.705C91.5246 153.158 91.6185 152.542 91.5489 151.859C91.4844 151.174 91.283 150.471 90.9448 149.751C90.6043 149.026 90.1908 148.42 89.7046 147.933C89.2211 147.438 88.6864 147.115 88.1004 146.963C87.5145 146.812 86.9078 146.883 86.2804 147.178C85.6375 147.48 85.1848 147.906 84.9222 148.456C84.6647 149.004 84.5695 149.623 84.6364 150.313C84.7061 150.996 84.9112 151.7 85.2518 152.425C85.59 153.145 85.9996 153.75 86.4807 154.24C86.9669 154.727 87.503 155.047 88.0889 155.198C88.6776 155.342 89.2934 155.263 89.9363 154.961ZM98.9107 153.194L93.3453 141.345L96.053 140.074L96.9806 142.048L97.104 141.99C96.9987 141.205 97.1214 140.504 97.4721 139.887C97.8254 139.263 98.3415 138.792 99.0204 138.473C99.1747 138.4 99.3506 138.327 99.5481 138.253C99.7484 138.172 99.9188 138.113 100.059 138.079L101.266 140.648C101.128 140.662 100.924 140.714 100.652 140.804C100.383 140.886 100.131 140.983 99.894 141.094C99.3848 141.333 98.979 141.659 98.6766 142.071C98.3769 142.475 98.202 142.925 98.1517 143.419C98.1015 143.914 98.1947 144.413 98.4314 144.917L101.703 151.883L98.9107 153.194ZM102.896 132.039L110.316 147.837L107.524 149.149L100.103 133.35L102.896 132.039ZM117.683 144.632C116.752 145.069 115.806 145.221 114.846 145.088C113.886 144.955 112.979 144.534 112.125 143.824C111.27 143.114 110.537 142.109 109.926 140.808C109.308 139.491 109.002 138.279 109.009 137.171C109.019 136.055 109.285 135.092 109.808 134.281C110.329 133.466 111.044 132.844 111.955 132.416C112.649 132.09 113.275 131.94 113.834 131.967C114.39 131.988 114.877 132.102 115.293 132.308C115.708 132.508 116.055 132.719 116.334 132.939L116.45 132.885L113.674 126.976L116.475 125.661L123.895 141.459L121.149 142.749L120.272 140.882L120.102 140.962C120.093 141.318 120.029 141.722 119.909 142.174C119.786 142.621 119.554 143.062 119.213 143.499C118.871 143.935 118.361 144.313 117.683 144.632ZM117.386 141.974C117.977 141.697 118.406 141.301 118.673 140.786C118.937 140.266 119.042 139.668 118.988 138.99C118.933 138.313 118.726 137.591 118.366 136.825C118.006 136.059 117.585 135.443 117.104 134.979C116.627 134.512 116.107 134.22 115.543 134.102C114.984 133.981 114.404 134.063 113.802 134.345C113.18 134.637 112.737 135.043 112.472 135.563C112.208 136.083 112.104 136.677 112.162 137.347C112.219 138.017 112.42 138.72 112.766 139.455C113.113 140.196 113.529 140.807 114.013 141.289C114.5 141.764 115.03 142.07 115.603 142.209C116.18 142.34 116.774 142.262 117.386 141.974ZM140.989 120.653L138.104 122.008C137.799 121.574 137.451 121.226 137.058 120.965C136.663 120.698 136.24 120.514 135.79 120.411C135.34 120.309 134.874 120.292 134.392 120.362C133.913 120.424 133.432 120.568 132.948 120.795C132.089 121.198 131.43 121.772 130.969 122.516C130.506 123.254 130.281 124.125 130.295 125.13C130.306 126.129 130.591 127.222 131.149 128.41C131.716 129.619 132.382 130.549 133.147 131.201C133.914 131.845 134.725 132.223 135.582 132.336C136.441 132.441 137.297 132.293 138.151 131.892C138.624 131.669 139.037 131.4 139.391 131.083C139.747 130.759 140.032 130.396 140.245 129.995C140.463 129.591 140.601 129.156 140.658 128.69C140.72 128.221 140.687 127.735 140.557 127.231L143.449 125.891C143.694 126.693 143.791 127.507 143.74 128.334C143.694 129.159 143.502 129.959 143.162 130.734C142.821 131.503 142.33 132.21 141.692 132.856C141.051 133.496 140.26 134.037 139.319 134.479C137.93 135.131 136.54 135.392 135.148 135.261C133.755 135.13 132.461 134.605 131.263 133.686C130.066 132.767 129.068 131.459 128.271 129.762C127.472 128.06 127.104 126.456 127.169 124.95C127.232 123.439 127.657 122.106 128.445 120.951C129.234 119.796 130.317 118.895 131.695 118.248C132.575 117.835 133.45 117.574 134.322 117.466C135.194 117.358 136.038 117.404 136.854 117.604C137.668 117.8 138.427 118.153 139.131 118.663C139.838 119.166 140.457 119.829 140.989 120.653ZM143.775 112.838L151.196 128.637L148.403 129.948L140.982 114.15L143.775 112.838ZM157.589 125.925C156.838 126.278 156.099 126.462 155.372 126.477C154.647 126.485 153.986 126.306 153.387 125.94C152.794 125.573 152.315 125 151.95 124.224C151.636 123.555 151.5 122.944 151.541 122.391C151.583 121.838 151.755 121.33 152.059 120.868C152.363 120.405 152.751 119.981 153.223 119.596C153.697 119.204 154.208 118.841 154.755 118.509C155.416 118.111 155.949 117.782 156.354 117.523C156.757 117.258 157.027 117.018 157.165 116.803C157.305 116.58 157.312 116.335 157.187 116.068L157.165 116.021C156.892 115.44 156.508 115.071 156.014 114.914C155.52 114.757 154.949 114.831 154.301 115.135C153.617 115.456 153.144 115.86 152.883 116.347C152.627 116.831 152.525 117.309 152.577 117.781L149.796 118.635C149.663 117.818 149.72 117.057 149.966 116.352C150.21 115.641 150.617 115.004 151.187 114.441C151.755 113.873 152.454 113.394 153.281 113.005C153.852 112.737 154.452 112.537 155.081 112.405C155.709 112.273 156.33 112.252 156.943 112.34C157.553 112.424 158.123 112.662 158.652 113.053C159.187 113.443 159.639 114.031 160.008 114.818L163.733 122.748L161.048 124.009L160.284 122.381L160.191 122.425C160.176 122.833 160.082 123.254 159.909 123.687C159.738 124.113 159.463 124.521 159.082 124.914C158.704 125.298 158.206 125.636 157.589 125.925ZM157.35 123.533C157.911 123.27 158.345 122.931 158.653 122.516C158.958 122.097 159.134 121.65 159.181 121.176C159.234 120.699 159.157 120.242 158.952 119.805L158.296 118.409C158.242 118.522 158.125 118.659 157.943 118.82C157.766 118.978 157.56 119.141 157.325 119.308C157.089 119.475 156.854 119.636 156.619 119.79C156.384 119.944 156.18 120.078 156.007 120.191C155.617 120.443 155.287 120.71 155.018 120.994C154.75 121.277 154.575 121.579 154.493 121.9C154.409 122.215 154.451 122.553 154.621 122.913C154.862 123.427 155.232 123.727 155.731 123.813C156.229 123.899 156.769 123.806 157.35 123.533ZM171.812 108.313L169.396 109.787C169.204 109.563 168.964 109.381 168.678 109.239C168.397 109.095 168.074 109.023 167.711 109.025C167.347 109.026 166.95 109.128 166.518 109.331C165.936 109.604 165.507 109.959 165.229 110.397C164.957 110.833 164.918 111.25 165.111 111.649C165.268 111.996 165.525 112.217 165.884 112.312C166.248 112.405 166.763 112.379 167.43 112.236L169.654 111.718C170.889 111.433 171.902 111.425 172.693 111.694C173.49 111.96 174.09 112.516 174.494 113.362C174.839 114.11 174.93 114.871 174.766 115.645C174.605 116.411 174.218 117.132 173.607 117.809C172.996 118.485 172.196 119.055 171.209 119.519C169.758 120.2 168.449 120.445 167.279 120.254C166.107 120.057 165.18 119.454 164.498 118.443L167.098 116.902C167.473 117.379 167.925 117.659 168.454 117.743C168.983 117.827 169.569 117.719 170.212 117.417C170.875 117.105 171.344 116.719 171.617 116.258C171.895 115.794 171.94 115.362 171.751 114.961C171.592 114.622 171.329 114.403 170.963 114.305C170.602 114.205 170.121 114.223 169.521 114.361L167.3 114.886C166.052 115.183 165.024 115.18 164.216 114.875C163.405 114.565 162.799 113.977 162.399 113.111C162.051 112.383 161.951 111.658 162.101 110.934C162.254 110.204 162.621 109.522 163.204 108.891C163.789 108.252 164.554 107.711 165.501 107.266C166.889 106.614 168.121 106.396 169.196 106.613C170.276 106.828 171.148 107.395 171.812 108.313ZM183.734 102.713L181.319 104.187C181.126 103.964 180.886 103.781 180.6 103.639C180.319 103.495 179.997 103.424 179.633 103.425C179.27 103.426 178.872 103.528 178.44 103.731C177.859 104.004 177.429 104.36 177.152 104.798C176.879 105.233 176.84 105.65 177.033 106.049C177.19 106.396 177.448 106.617 177.806 106.712C178.17 106.805 178.685 106.78 179.352 106.636L181.576 106.119C182.811 105.834 183.824 105.825 184.616 106.094C185.412 106.36 186.012 106.916 186.416 107.762C186.761 108.51 186.852 109.271 186.688 110.045C186.527 110.811 186.141 111.533 185.529 112.209C184.918 112.885 184.118 113.455 183.131 113.919C181.681 114.6 180.371 114.845 179.201 114.654C178.029 114.457 177.102 113.854 176.42 112.843L179.02 111.302C179.395 111.779 179.847 112.059 180.376 112.144C180.905 112.228 181.491 112.119 182.134 111.817C182.798 111.505 183.266 111.119 183.539 110.658C183.817 110.195 183.862 109.762 183.674 109.361C183.514 109.022 183.251 108.803 182.885 108.705C182.524 108.605 182.043 108.623 181.443 108.761L179.222 109.286C177.975 109.583 176.947 109.58 176.138 109.275C175.327 108.966 174.722 108.378 174.321 107.511C173.973 106.783 173.874 106.058 174.024 105.335C174.176 104.604 174.544 103.923 175.126 103.291C175.711 102.652 176.477 102.111 177.423 101.666C178.812 101.014 180.043 100.797 181.118 101.014C182.198 101.228 183.07 101.795 183.734 102.713Z" fill="white"/>
<path d="M215.375 113.965C210.44 99.9533 203.822 80.5429 195.363 68.6053C155.008 86.4268 114.907 104.493 75.3675 124.13C60.3635 131.581 45.3467 142.069 29.4596 147.425C35.6392 159.118 41.2654 171.051 47.3411 182.771C49.8293 187.57 54.0285 191.975 55.8008 197.107C100.343 175.775 143.163 150.682 188.577 131.126C197.282 127.378 205.337 122.01 214.39 119.009C190.888 127.714 168.557 140.232 146.038 151.158C130.982 158.463 114.76 163.292 99.613 170.542C85.2911 177.398 72.2784 187.002 57.8598 193.545C46.3224 177.971 33.5921 162.583 23.1908 146.205C32.2346 141.723 40.7611 136.171 49.8442 131.813C98.1949 108.617 146.986 86.5216 196.386 65.7139C203.545 81.1719 206.924 97.7506 213.155 113.453C204.409 98.1966 200.188 80.788 191.85 65.4007C185.232 66.8246 178.698 71.015 172.57 73.7671C156.423 81.0191 140.417 88.1435 124.627 96.156C104.767 106.233 85.1501 116.574 65.4298 126.939C51.9131 134.044 35.9806 140.135 23.9339 149.784C33.2321 165.921 42.7964 181.939 52.278 197.952" stroke="white" stroke-miterlimit="1.5" stroke-linecap="round" stroke-linejoin="round"/>
<path d="M184.983 46.5518C185.413 40.3631 186.023 34.2207 186.713 28.0576" stroke="white" stroke-width="2" stroke-miterlimit="1.5" stroke-linecap="round" stroke-linejoin="round"/>
<path d="M197.56 52.2201C200.362 45.7738 204.199 39.9004 207.619 33.7886" stroke="white" stroke-width="2" stroke-miterlimit="1.5" stroke-linecap="round" stroke-linejoin="round"/>
<path d="M207.266 61.6055C211.898 57.9633 217.054 54.722 222.639 52.8302" stroke="white" stroke-width="2" stroke-miterlimit="1.5" stroke-linecap="round" stroke-linejoin="round"/>
</svg>
